<?xml version="1.0" encoding="utf-8"?>
<!-- Generator: Adobe Illustrator 25.1.0, SVG Export Plug-In . SVG Version: 6.00 Build 0)  -->
<svg version="1.1" id="Ebene_1" xmlns="http://www.w3.org/2000/svg" xmlns:xlink="http://www.w3.org/1999/xlink" x="0px" y="0px"
	 viewBox="0 0 24 24" style="enable-background:new 0 0 24 24;" xml:space="preserve">
<path d="M3,6c1.6,0,3-1.4,3-3S4.6,0,3,0S0,1.4,0,3S1.4,6,3,6z M12,24c1.7,0,3-1.3,3-3s-1.3-3-3-3s-3,1.3-3,3S10.3,24,12,24z M3,24
	c1.6,0,3-1.3,3-3s-1.4-3-3-3s-3,1.3-3,3S1.4,24,3,24z M3,15c1.6,0,3-1.3,3-3S4.6,9,3,9s-3,1.3-3,3S1.4,15,3,15z M12,15
	c1.7,0,3-1.3,3-3s-1.3-3-3-3s-3,1.3-3,3S10.3,15,12,15z M18,3c0,1.6,1.3,3,3,3s3-1.4,3-3s-1.3-3-3-3S18,1.4,18,3z M12,6
	c1.7,0,3-1.4,3-3s-1.3-3-3-3S9,1.4,9,3S10.3,6,12,6z M21,15c1.7,0,3-1.3,3-3s-1.3-3-3-3s-3,1.3-3,3S19.3,15,21,15z M21,24
	c1.7,0,3-1.3,3-3s-1.3-3-3-3s-3,1.3-3,3S19.3,24,21,24z"/>
</svg>
